<svg xmlns="http://www.w3.org/2000/svg" width="227" height="33" viewBox="0 0 227 33">
    <desc>Tok&amp;Stok - Loja de Móveis e Decoração Online</desc>
    <g fill="#009845" fill-rule="nonzero">
      <path d="M101.91 10.719c-.335.608-1.746 1.73-3.42 1.616-4.343-.6-3.139-4.502-2.45-4.962 1.465-1.523 3.487-.32 2.92.181-1.013.898-.885 4.117 1.868 2.884 1.174-.687 1.459-3.813-1.653-4.792-4.427-.94-8.131 4.664-2.339 8.248-3.02 2.008-6.04 4.961-5.3 8.862.57 2.675 3.718 5.452 7.9 5.327 7.726-.248 6.333-7.308 3.956-7.335-.832.25.492 1.368.57 2.118.166 1.569-1.07 4.882-5.35 3.915-3.984-.902-4.149-6.782-.805-9.267 4.226-3.244 7.9-2.006 12.174-5.039 2.153-1.425 1.62-3.431.822-4.045.16 4.913-6.521 4.447-4.673-.557 1.666-3.479 5.72-1.157 6.44.446.968 2.23.228 4.85-1.482 6.522-1.995 2.006-4.332 3.177-6.725 4.18 5.08 2.124 2.8 13.458-10.88 10.485-5.256-1.053-11.21-10.095-.579-15.614-5.153-3.151-2.907-6.91-1.653-8.025 1.938-1.95 5.147-2.2 7.615-1.535 4.022 1.086 4.053 4.554 3.044 6.387M127.767 0C121.607.212 117 4.199 117 10.646c0 6.659 4.9 9.078 10.18 11.326 2.01.89 5.11 1.994 5.027 4.666-.084 2.333-1.801 3.267-3.813 3.902V33C134.595 32.872 140 28.59 140 22.014c0-3.904-1.676-7.891-9.09-10.775-4.986-1.951-6.118-3.223-6.118-5.302 0-1.738 1.383-2.927 2.975-3.478V0zm11.102 1.91c0-.34.084-1.782-1.213-1.782-1.09 0-1.006 1.527-2.096 1.527-.46 0-3.268-1.612-5.907-1.653v2.46c3.268.722 5.866 3.944 6.327 7.084.127.848.504 1.654 1.508 1.654 1.215 0 1.383-1.06 1.383-2.036V1.91h-.002zM117 31.05c0 .212 0 1.78 1.299 1.78 1.047 0 .922-1.398 2.262-1.398 1.508 0 2.305 1.483 5.95 1.568v-2.46c-3.686-.764-6.034-4.962-6.62-8.354-.125-.722-.711-1.4-1.55-1.4-1.171 0-1.34 1.188-1.34 2.078v8.186H117z"></path>
      <path d="M127.767 0C121.607.212 117 4.199 117 10.646c0 6.659 4.903 9.078 10.18 11.326 2.01.89 5.112 1.994 5.027 4.666-.084 2.333-1.801 3.267-3.813 3.902V33C134.595 32.872 140 28.59 140 22.014c0-3.904-1.676-7.891-9.09-10.775-4.986-1.95-6.117-3.223-6.117-5.302 0-1.738 1.383-2.927 2.975-3.478V0h-.001zM138.998 1.875c0-.334.082-1.75-1.184-1.75-1.064 0-.982 1.5-2.047 1.5-.45 0-3.19-1.584-5.767-1.625v2.417c3.19.709 5.726 3.874 6.177 6.959.122.833.492 1.624 1.473 1.624 1.186 0 1.35-1.041 1.35-2V1.876h-.002z"></path>
      <path d="M117 31.084c0 .208 0 1.749 1.366 1.749 1.1 0 .97-1.374 2.378-1.374 1.586 0 2.424 1.457 6.256 1.541v-2.417c-3.876-.75-6.344-4.875-6.96-8.207-.132-.71-.748-1.376-1.63-1.376-1.232 0-1.408 1.168-1.408 2.042v8.042H117zM149.888 27.359c0 1.534.04 1.783-1.42 2.237-.543.166-.917.54-.917 1.12 0 1.2 1.377 1.284 1.543 1.284h11.81c.168 0 1.545-.083 1.545-1.283 0-.582-.375-.953-.918-1.12-1.461-.455-1.419-.704-1.419-2.238V1h-10.224v26.359zM167.998 1h-6.008v2.404c2.17 1.532 2.753 4.27 3.129 6.465.126.912.334 1.989 1.504 1.989 1.252 0 1.377-1.036 1.377-1.202V1h-.002zM142 10.656c0 .166.126 1.202 1.377 1.202 1.168 0 1.378-1.077 1.503-1.989.375-2.197.959-4.933 3.128-6.465V1H142v9.656z"></path>
      <path d="M149.353 27.359c0 1.534.041 1.781-1.428 2.237-.547.166-.925.54-.925 1.12 0 1.2 1.387 1.284 1.554 1.284h11.89c.17 0 1.556-.083 1.556-1.283 0-.582-.38-.953-.925-1.12-1.47-.457-1.428-.704-1.428-2.238V1h-10.294v26.359zM168 1h-6v2.435c2.166 1.553 2.749 4.325 3.124 6.55.126.924.334 2.015 1.5 2.015 1.252 0 1.376-1.05 1.376-1.218V1zM141 10.782c0 .169.126 1.218 1.376 1.218 1.165 0 1.375-1.09 1.5-2.015.375-2.225.958-4.997 3.124-6.55V1h-6v9.782zM182.056 0C173.156.807 169 8.059 169 16.5c0 8.44 4.156 15.693 13.056 16.498V30.54c-1.973-.72-2.142-1.994-2.142-3.054V5.514c0-1.06.169-2.332 2.142-3.054V0zm1.888 33c8.9-.805 13.056-8.059 13.056-16.5C197 8.06 192.844.809 183.944.003v2.46c1.973.722 2.142 1.993 2.142 3.053v21.971c0 1.06-.169 2.334-2.142 3.054V33z"></path>
      <path d="M182 0c-8.862.807-13 8.06-13 16.5s4.138 15.695 13 16.5v-2.459c-1.965-.72-2.132-1.993-2.132-3.053V5.514c0-1.06.167-2.332 2.132-3.054V0zM184 33c8.862-.805 13-8.06 13-16.5S192.862.807 184 0v2.46c1.965.722 2.132 1.994 2.132 3.054v21.972c0 1.06-.167 2.334-2.132 3.054V33z"></path>
      <path d="M217.746 9.992l.799-1.078c1.766-2.36 2.733-3.935 5.635-5.014.757-.29 1.556-.58 1.556-1.533 0-1.326-1.218-1.367-2.228-1.367h-7.193c-.882 0-2.06-.042-2.06 1.243 0 .829.63.995 1.303 1.285 1.01.415 1.597.995 1.597 2.113 0 .995-.504 1.822-1.093 2.61l-4.879 6.84c-.504.703-.966 1.242-.966 2.114 0 .87.294 1.74.547 2.527l2.608 7.709c.127.29.337.91.337 1.242 0 .912-1.724.663-1.724 2.031 0 1.285 1.263 1.285 2.23 1.285h10.555c.842 0 2.23.083 2.23-1.119 0-.786-.378-1.036-1.01-1.325-.968-.456-1.094-1.16-1.472-2.072l-6.772-17.49zm-9.086-4.35c0-1.535-.043-1.782 1.43-2.238.546-.166.925-.54.925-1.12 0-1.2-1.388-1.284-1.557-1.284h-11.903c-.168 0-1.555.083-1.555 1.283 0 .58.378.955.926 1.12 1.47.457 1.43.704 1.43 2.238v21.715c0 1.532.04 1.782-1.43 2.238-.548.166-.926.539-.926 1.118 0 1.202 1.388 1.285 1.555 1.285h11.903c.169 0 1.557-.083 1.557-1.285 0-.58-.379-.952-.926-1.118-1.472-.456-1.43-.706-1.43-2.238V5.641z"></path>
      <path d="M217.628 9.992l.808-1.078c1.79-2.36 2.77-3.936 5.71-5.014.766-.29 1.575-.58 1.575-1.534 0-1.325-1.236-1.366-2.259-1.366h-7.286c-.894 0-2.086-.042-2.086 1.243 0 .828.64.995 1.321 1.284 1.023.416 1.619.995 1.619 2.114 0 .995-.512 1.824-1.108 2.61l-4.943 6.84c-.512.703-.979 1.242-.979 2.114 0 .87.298 1.74.554 2.527l2.642 7.709c.127.29.34.91.34 1.242 0 .912-1.746.663-1.746 2.03 0 1.286 1.279 1.286 2.258 1.286h10.695c.852 0 2.257.083 2.257-1.119 0-.786-.383-1.036-1.023-1.325-.981-.456-1.108-1.16-1.492-2.072l-6.857-17.49z"></path>
      <path d="M208.647 5.641c0-1.534-.043-1.781 1.428-2.237.547-.166.925-.54.925-1.12 0-1.2-1.387-1.284-1.555-1.284h-11.891c-.169 0-1.554.083-1.554 1.283 0 .58.378.955.925 1.12 1.469.457 1.428.704 1.428 2.238V27.36c0 1.532.041 1.781-1.428 2.237-.547.166-.925.54-.925 1.119 0 1.202 1.387 1.285 1.554 1.285h11.89c.17 0 1.556-.083 1.556-1.285 0-.58-.378-.953-.925-1.119-1.47-.456-1.428-.705-1.428-2.237V5.64zM7.888 27.359c0 1.534.04 1.783-1.42 2.237-.543.166-.919.54-.919 1.12 0 1.2 1.378 1.284 1.545 1.284h11.81c.168 0 1.545-.083 1.545-1.283 0-.582-.375-.953-.918-1.12-1.46-.455-1.419-.704-1.419-2.238V1H7.888v26.359zM25.998 1H19.99v2.404c2.171 1.532 2.755 4.27 3.13 6.465.127.912.335 1.989 1.503 1.989 1.252 0 1.377-1.036 1.377-1.202V1h-.002zM0 10.656c0 .166.126 1.202 1.377 1.202 1.168 0 1.378-1.077 1.503-1.989.375-2.197.96-4.933 3.13-6.465V1H0v9.656z"></path>
      <path d="M8.353 27.359c0 1.534.041 1.781-1.428 2.237-.547.166-.925.54-.925 1.12C6 31.917 7.387 32 7.554 32h11.892c.169 0 1.554-.083 1.554-1.283 0-.582-.378-.953-.925-1.12-1.471-.457-1.428-.704-1.428-2.238V1H8.351v26.359h.002zM25.998 1H20v2.435c2.166 1.553 2.75 4.325 3.125 6.55.126.924.334 2.015 1.5 2.015C25.875 12 26 10.95 26 10.782V1h-.002zM40.056 0C31.156.807 27 8.059 27 16.5c0 8.44 4.156 15.693 13.056 16.498V30.54c-1.973-.72-2.142-1.994-2.142-3.054V5.514c0-1.06.169-2.332 2.142-3.054V0zm1.888 33C50.844 32.195 55 24.941 55 16.5 55 8.06 50.844.809 41.944.003v2.46c1.973.722 2.142 1.993 2.142 3.053v21.971c0 1.06-.169 2.334-2.142 3.054V33z"></path>
      <path d="M40 0c-8.862.807-13 8.06-13 16.5S31.138 32.195 40 33v-2.459c-1.965-.72-2.132-1.993-2.132-3.053V5.514c0-1.06.167-2.332 2.132-3.054V0zM42 33c8.862-.805 13-8.06 13-16.5S50.862.807 42 0v2.46c1.965.722 2.132 1.994 2.132 3.054v21.972c0 1.06-.167 2.334-2.132 3.054V33z"></path>
      <path d="M75.744 9.992l.8-1.078C78.31 6.554 79.278 4.98 82.18 3.9c.757-.29 1.555-.58 1.555-1.533C83.735 1.04 82.517 1 81.505 1h-7.193c-.884 0-2.06-.042-2.06 1.243 0 .829.63.995 1.303 1.285 1.01.415 1.599.995 1.599 2.113 0 .995-.505 1.822-1.093 2.61l-4.88 6.84c-.503.703-.966 1.242-.966 2.114 0 .87.294 1.74.547 2.527l2.608 7.709c.128.29.337.91.337 1.242 0 .912-1.724.663-1.724 2.031 0 1.285 1.263 1.285 2.23 1.285H82.77c.842 0 2.23.083 2.23-1.119 0-.786-.379-1.036-1.01-1.325-.967-.456-1.092-1.16-1.471-2.072l-6.775-17.49zm-9.085-4.35c0-1.535-.043-1.782 1.43-2.238.547-.166.926-.54.926-1.12 0-1.2-1.389-1.284-1.556-1.284H55.555C55.387 1 54 1.083 54 2.283c0 .58.379.955.926 1.12 1.47.457 1.43.704 1.43 2.238v21.715c0 1.532.04 1.782-1.43 2.238-.547.166-.926.539-.926 1.118 0 1.202 1.388 1.285 1.555 1.285H67.46c.17 0 1.556-.083 1.556-1.285 0-.58-.379-.952-.926-1.118-1.473-.456-1.43-.706-1.43-2.238V5.641z"></path>
      <path d="M75.63 9.992l.808-1.078c1.79-2.36 2.771-3.936 5.71-5.014.766-.29 1.575-.58 1.575-1.534C83.723 1.041 82.487 1 81.464 1h-7.286c-.896 0-2.088-.042-2.088 1.243 0 .828.64.995 1.321 1.284 1.023.416 1.619.995 1.619 2.114 0 .995-.512 1.824-1.108 2.61l-4.943 6.84c-.51.703-.979 1.242-.979 2.114 0 .87.298 1.74.554 2.527l2.642 7.709c.127.29.34.91.34 1.242 0 .912-1.746.663-1.746 2.03C69.79 32 71.069 32 72.048 32h10.693c.853 0 2.259.083 2.259-1.119 0-.786-.383-1.036-1.023-1.325-.98-.456-1.108-1.16-1.492-2.072L75.63 9.993z"></path>
      <path d="M66.647 5.641c0-1.534-.043-1.781 1.428-2.237.547-.166.925-.54.925-1.12C69 1.083 67.613 1 67.446 1H55.554C55.385 1 54 1.083 54 2.283c0 .58.378.955.925 1.12 1.47.457 1.428.704 1.428 2.238V27.36c0 1.532.041 1.781-1.428 2.237-.547.166-.925.54-.925 1.119C54 31.917 55.387 32 55.554 32h11.892c.169 0 1.554-.083 1.554-1.285 0-.58-.378-.953-.925-1.119-1.471-.456-1.428-.705-1.428-2.237V5.64z"></path>
    </g>
  </svg>
